<svg width="16" height="16" viewBox="0 0 16 16" fill="none" xmlns="http://www.w3.org/2000/svg">
<path d="M6.935 4.54999C6.93894 4.35645 7.01928 4.17233 7.15848 4.03782C7.29768 3.9033 7.48444 3.82931 7.678 3.83199H8.178C8.37156 3.82931 8.55832 3.9033 8.69752 4.03782C8.83672 4.17233 8.91706 4.35645 8.921 4.54999V5.02899C8.91706 5.22252 8.83672 5.40664 8.69752 5.54116C8.55832 5.67568 8.37156 5.74967 8.178 5.74699H7.678C7.48444 5.74967 7.29768 5.67568 7.15848 5.54116C7.01928 5.40664 6.93894 5.22252 6.935 5.02899V4.54999ZM9.907 11.495H5.945V10.537H6.936V7.66299H5.945V6.70499H8.917V10.537H9.908L9.907 11.495ZM7.929 -1.07654e-05C5.86159 -0.0345212 3.86507 0.753263 2.37826 2.19019C0.891456 3.62712 0.0360292 5.59561 0 7.66299C0.0357671 9.73055 0.89108 11.6993 2.37792 13.1364C3.86475 14.5736 5.86142 15.3615 7.929 15.327C9.99606 15.361 11.9921 14.5729 13.4784 13.1361C14.9648 11.6992 15.82 9.73102 15.856 7.66399C15.8202 5.59678 14.9652 3.62835 13.4788 2.19126C11.9924 0.754176 9.99623 -0.0339836 7.929 -1.07654e-05ZM7.929 13.89C6.24955 13.9178 4.62777 13.2776 3.42016 12.1101C2.21254 10.9426 1.51793 9.34343 1.489 7.66399C1.51767 5.98438 2.21217 4.3849 3.41981 3.2172C4.62745 2.0495 6.24937 1.40917 7.929 1.43699C9.60845 1.40917 11.2302 2.04936 12.4378 3.21685C13.6455 4.38433 14.3401 5.98355 14.369 7.66299C14.3403 9.3426 13.6458 10.9421 12.4382 12.1098C11.2306 13.2775 9.60863 13.9178 7.929 13.89Z" fill="#C1C8D8"/>
</svg>
