<svg width="24" height="24" viewBox="0 0 24 24" fill="none" xmlns="http://www.w3.org/2000/svg">
<path d="M20 4.00001H4.00001C3.73765 3.99934 3.47776 4.05069 3.23537 4.15109C2.99297 4.25149 2.77289 4.39894 2.58784 4.58492C2.40278 4.7709 2.25644 4.99173 2.15725 5.23462C2.05807 5.47751 2.00803 5.73766 2.01001 6.00001L2.00001 18C1.99909 18.2629 2.05019 18.5234 2.15037 18.7665C2.25055 19.0095 2.39783 19.2304 2.58374 19.4163C2.76964 19.6022 2.99048 19.7495 3.23355 19.8497C3.47662 19.9498 3.73711 20.0009 4.00001 20H20C20.2629 20.0009 20.5234 19.9498 20.7665 19.8497C21.0095 19.7495 21.2304 19.6022 21.4163 19.4163C21.6022 19.2304 21.7495 19.0095 21.8497 18.7665C21.9498 18.5234 22.0009 18.2629 22 18V6.00001C22.0009 5.73711 21.9498 5.47662 21.8497 5.23355C21.7495 4.99048 21.6022 4.76964 21.4163 4.58374C21.2304 4.39783 21.0095 4.25055 20.7665 4.15037C20.5234 4.05019 20.2629 3.99909 20 4.00001ZM20 17C20 17.2652 19.8947 17.5196 19.7071 17.7071C19.5196 17.8947 19.2652 18 19 18H5.00001C4.7348 18 4.48044 17.8947 4.29291 17.7071C4.10537 17.5196 4.00001 17.2652 4.00001 17V7.00001C4.00001 6.7348 4.10537 6.48044 4.29291 6.29291C4.48044 6.10537 4.7348 6.00001 5.00001 6.00001H19C19.2652 6.00001 19.5196 6.10537 19.7071 6.29291C19.8947 6.48044 20 6.7348 20 7.00001V17ZM14 10C14.2652 10 14.5196 9.89466 14.7071 9.70712C14.8947 9.51958 15 9.26523 15 9.00001C15 8.7348 14.8947 8.48044 14.7071 8.29291C14.5196 8.10537 14.2652 8.00001 14 8.00001H13V7.99001C13 7.7248 12.8947 7.47044 12.7071 7.28291C12.5196 7.09537 12.2652 6.99001 12 6.99001C11.7348 6.99001 11.4804 7.09537 11.2929 7.28291C11.1054 7.47044 11 7.7248 11 7.99001V8.00001H10C9.7348 8.00001 9.48044 8.10537 9.29291 8.29291C9.10537 8.48044 9.00001 8.7348 9.00001 9.00001V12C9.00001 12.2652 9.10537 12.5196 9.29291 12.7071C9.48044 12.8947 9.7348 13 10 13H13V14H10C9.7348 14 9.48044 14.1054 9.29291 14.2929C9.10537 14.4804 9.00001 14.7348 9.00001 15C9.00001 15.2652 9.10537 15.5196 9.29291 15.7071C9.48044 15.8947 9.7348 16 10 16H11C11 16.2652 11.1054 16.5196 11.2929 16.7071C11.4804 16.8947 11.7348 17 12 17C12.2652 17 12.5196 16.8947 12.7071 16.7071C12.8947 16.5196 13 16.2652 13 16H14C14.2652 16 14.5196 15.8947 14.7071 15.7071C14.8947 15.5196 15 15.2652 15 15V12C15 11.7348 14.8947 11.4804 14.7071 11.2929C14.5196 11.1054 14.2652 11 14 11H11V10H14Z" fill="#C1C8D8"/>
</svg>
