<svg width="151" height="20" viewBox="0 0 151 20" fill="none" xmlns="http://www.w3.org/2000/svg">
<path d="M36.03 11.04C36.03 11.48 35.975 11.95 35.865 12.45C35.765 12.94 35.57 13.395 35.28 13.815C34.99 14.235 34.59 14.585 34.08 14.865C33.58 15.135 32.935 15.27 32.145 15.27C31.345 15.27 30.695 15.135 30.195 14.865C29.695 14.585 29.3 14.235 29.01 13.815C28.72 13.395 28.52 12.94 28.41 12.45C28.31 11.95 28.26 11.48 28.26 11.04V4.38H29.34V10.92C29.34 11.43 29.39 11.87 29.49 12.24C29.59 12.6 29.72 12.905 29.88 13.155C30.05 13.405 30.235 13.605 30.435 13.755C30.645 13.895 30.85 14.005 31.05 14.085C31.26 14.165 31.46 14.22 31.65 14.25C31.84 14.27 32.005 14.28 32.145 14.28C32.275 14.28 32.435 14.27 32.625 14.25C32.825 14.22 33.025 14.165 33.225 14.085C33.435 14.005 33.64 13.895 33.84 13.755C34.05 13.605 34.235 13.405 34.395 13.155C34.565 12.905 34.7 12.6 34.8 12.24C34.9 11.87 34.95 11.43 34.95 10.92V4.38H36.03V11.04ZM42.0832 9.645C41.9332 9.355 41.7332 9.125 41.4832 8.955C41.2332 8.785 40.9282 8.7 40.5682 8.7C40.3982 8.7 40.2232 8.72 40.0432 8.76C39.8732 8.8 39.7182 8.865 39.5782 8.955C39.4382 9.035 39.3232 9.14 39.2332 9.27C39.1532 9.4 39.1132 9.56 39.1132 9.75C39.1132 10.08 39.2282 10.32 39.4582 10.47C39.6882 10.62 40.0332 10.75 40.4932 10.86L41.4982 11.1C41.9882 11.21 42.3932 11.435 42.7132 11.775C43.0432 12.105 43.2082 12.52 43.2082 13.02C43.2082 13.4 43.1282 13.73 42.9682 14.01C42.8182 14.28 42.6132 14.505 42.3532 14.685C42.1032 14.855 41.8132 14.98 41.4832 15.06C41.1532 15.14 40.8182 15.18 40.4782 15.18C39.9382 15.18 39.4332 15.08 38.9632 14.88C38.5032 14.67 38.1082 14.315 37.7782 13.815L38.6332 13.23C38.8332 13.55 39.0832 13.805 39.3832 13.995C39.6932 14.185 40.0582 14.28 40.4782 14.28C40.6782 14.28 40.8782 14.26 41.0782 14.22C41.2782 14.17 41.4532 14.1 41.6032 14.01C41.7632 13.91 41.8882 13.785 41.9782 13.635C42.0782 13.485 42.1282 13.31 42.1282 13.11C42.1282 12.76 41.9982 12.51 41.7382 12.36C41.4782 12.2 41.1632 12.075 40.7932 11.985L39.8332 11.76C39.7132 11.73 39.5482 11.68 39.3382 11.61C39.1382 11.54 38.9382 11.435 38.7382 11.295C38.5482 11.155 38.3832 10.975 38.2432 10.755C38.1032 10.525 38.0332 10.245 38.0332 9.915C38.0332 9.555 38.1032 9.24 38.2432 8.97C38.3932 8.7 38.5882 8.48 38.8282 8.31C39.0782 8.14 39.3582 8.015 39.6682 7.935C39.9782 7.845 40.2982 7.8 40.6282 7.8C41.1182 7.8 41.5732 7.895 41.9932 8.085C42.4132 8.275 42.7382 8.6 42.9682 9.06L42.0832 9.645ZM50.2099 10.95C50.2099 10.28 50.0099 9.74 49.6099 9.33C49.2099 8.91 48.6499 8.7 47.9299 8.7C47.6099 8.7 47.2999 8.765 46.9999 8.895C46.6999 9.015 46.4349 9.18 46.2049 9.39C45.9849 9.6 45.8049 9.84 45.6649 10.11C45.5349 10.38 45.4699 10.66 45.4699 10.95H50.2099ZM45.4399 11.76C45.4699 12.11 45.5549 12.44 45.6949 12.75C45.8349 13.06 46.0199 13.33 46.2499 13.56C46.4799 13.78 46.7449 13.955 47.0449 14.085C47.3449 14.215 47.6699 14.28 48.0199 14.28C48.5499 14.28 49.0049 14.16 49.3849 13.92C49.7749 13.67 50.0699 13.385 50.2699 13.065L51.0349 13.695C50.6149 14.225 50.1499 14.605 49.6399 14.835C49.1399 15.065 48.5999 15.18 48.0199 15.18C47.4999 15.18 47.0149 15.09 46.5649 14.91C46.1249 14.72 45.7449 14.46 45.4249 14.13C45.1049 13.8 44.8499 13.41 44.6599 12.96C44.4799 12.51 44.3899 12.02 44.3899 11.49C44.3899 10.96 44.4799 10.47 44.6599 10.02C44.8399 9.57 45.0899 9.18 45.4099 8.85C45.7299 8.52 46.1049 8.265 46.5349 8.085C46.9649 7.895 47.4299 7.8 47.9299 7.8C48.4599 7.8 48.9349 7.895 49.3549 8.085C49.7749 8.275 50.1249 8.53 50.4049 8.85C50.6949 9.16 50.9149 9.53 51.0649 9.96C51.2149 10.38 51.2899 10.83 51.2899 11.31V11.76H45.4399ZM53.1899 10.17C53.1899 9.86 53.1799 9.545 53.1599 9.225C53.1499 8.905 53.1399 8.49 53.1299 7.98H54.1049V9.285H54.1349C54.2049 9.095 54.3049 8.915 54.4349 8.745C54.5649 8.565 54.7199 8.405 54.8999 8.265C55.0899 8.125 55.3049 8.015 55.5449 7.935C55.7949 7.845 56.0749 7.8 56.3849 7.8C56.6649 7.8 56.9099 7.83 57.1199 7.89L56.9249 8.865C56.7949 8.815 56.6049 8.79 56.3549 8.79C55.9749 8.79 55.6499 8.865 55.3799 9.015C55.1099 9.155 54.8849 9.34 54.7049 9.57C54.5249 9.79 54.3899 10.03 54.2999 10.29C54.2199 10.55 54.1799 10.8 54.1799 11.04V15H53.1899V10.17ZM67.8352 13.02L71.4202 4.38H73.0702V15H71.9902V5.82H71.9602L68.1202 15H67.5502L63.7102 5.82H63.6802V15H62.6002V4.38H64.2502L67.8352 13.02ZM79.5749 11.505C79.3249 11.505 79.0099 11.52 78.6299 11.55C78.2599 11.57 77.8999 11.63 77.5499 11.73C77.2099 11.82 76.9149 11.965 76.6649 12.165C76.4249 12.365 76.3049 12.64 76.3049 12.99C76.3049 13.22 76.3499 13.42 76.4399 13.59C76.5399 13.75 76.6699 13.885 76.8299 13.995C76.9899 14.095 77.1649 14.17 77.3549 14.22C77.5549 14.26 77.7549 14.28 77.9549 14.28C78.3149 14.28 78.6249 14.22 78.8849 14.1C79.1549 13.98 79.3799 13.82 79.5599 13.62C79.7399 13.41 79.8699 13.17 79.9499 12.9C80.0399 12.62 80.0849 12.325 80.0849 12.015V11.505H79.5749ZM80.0849 10.695V10.515C80.0849 9.305 79.4849 8.7 78.2849 8.7C77.4649 8.7 76.7499 8.975 76.1399 9.525L75.5399 8.82C76.1999 8.14 77.1899 7.8 78.5099 7.8C78.8499 7.8 79.1749 7.85 79.4849 7.95C79.8049 8.05 80.0799 8.205 80.3099 8.415C80.5399 8.615 80.7249 8.87 80.8649 9.18C81.0049 9.49 81.0749 9.86 81.0749 10.29V13.425C81.0749 13.695 81.0849 13.98 81.1049 14.28C81.1349 14.57 81.1649 14.81 81.1949 15H80.2349C80.2049 14.83 80.1799 14.645 80.1599 14.445C80.1499 14.245 80.1449 14.05 80.1449 13.86H80.1149C79.8249 14.33 79.4799 14.67 79.0799 14.88C78.6899 15.08 78.2099 15.18 77.6399 15.18C77.3299 15.18 77.0299 15.135 76.7399 15.045C76.4499 14.965 76.1899 14.84 75.9599 14.67C75.7399 14.49 75.5599 14.275 75.4199 14.025C75.2899 13.765 75.2249 13.465 75.2249 13.125C75.2249 12.555 75.3699 12.11 75.6599 11.79C75.9599 11.46 76.3299 11.215 76.7699 11.055C77.2199 10.895 77.6949 10.795 78.1949 10.755C78.7049 10.715 79.1699 10.695 79.5899 10.695H80.0849ZM84.3082 7.98C84.3282 8.17 84.3382 8.36 84.3382 8.55C84.3482 8.73 84.3532 8.915 84.3532 9.105H84.3832C84.4932 8.915 84.6332 8.74 84.8032 8.58C84.9732 8.42 85.1632 8.285 85.3732 8.175C85.5832 8.055 85.8032 7.965 86.0332 7.905C86.2732 7.835 86.5082 7.8 86.7382 7.8C87.6382 7.8 88.3032 8.04 88.7332 8.52C89.1632 8.99 89.3782 9.665 89.3782 10.545V15H88.3882V11.115C88.3882 10.335 88.2532 9.74 87.9832 9.33C87.7132 8.91 87.2132 8.7 86.4832 8.7C86.4332 8.7 86.2932 8.72 86.0632 8.76C85.8332 8.8 85.5882 8.91 85.3282 9.09C85.0782 9.27 84.8532 9.54 84.6532 9.9C84.4532 10.26 84.3532 10.76 84.3532 11.4V15H83.3632V9.525C83.3632 9.335 83.3532 9.095 83.3332 8.805C83.3232 8.515 83.3082 8.24 83.2882 7.98H84.3082ZM95.6882 11.505C95.4382 11.505 95.1232 11.52 94.7432 11.55C94.3732 11.57 94.0132 11.63 93.6632 11.73C93.3232 11.82 93.0282 11.965 92.7782 12.165C92.5382 12.365 92.4182 12.64 92.4182 12.99C92.4182 13.22 92.4632 13.42 92.5532 13.59C92.6532 13.75 92.7832 13.885 92.9432 13.995C93.1032 14.095 93.2782 14.17 93.4682 14.22C93.6682 14.26 93.8682 14.28 94.0682 14.28C94.4282 14.28 94.7382 14.22 94.9982 14.1C95.2682 13.98 95.4932 13.82 95.6732 13.62C95.8532 13.41 95.9832 13.17 96.0632 12.9C96.1532 12.62 96.1982 12.325 96.1982 12.015V11.505H95.6882ZM96.1982 10.695V10.515C96.1982 9.305 95.5982 8.7 94.3982 8.7C93.5782 8.7 92.8632 8.975 92.2532 9.525L91.6532 8.82C92.3132 8.14 93.3032 7.8 94.6232 7.8C94.9632 7.8 95.2882 7.85 95.5982 7.95C95.9182 8.05 96.1932 8.205 96.4232 8.415C96.6532 8.615 96.8382 8.87 96.9782 9.18C97.1182 9.49 97.1882 9.86 97.1882 10.29V13.425C97.1882 13.695 97.1982 13.98 97.2182 14.28C97.2482 14.57 97.2782 14.81 97.3082 15H96.3482C96.3182 14.83 96.2932 14.645 96.2732 14.445C96.2632 14.245 96.2582 14.05 96.2582 13.86H96.2282C95.9382 14.33 95.5932 14.67 95.1932 14.88C94.8032 15.08 94.3232 15.18 93.7532 15.18C93.4432 15.18 93.1432 15.135 92.8532 15.045C92.5632 14.965 92.3032 14.84 92.0732 14.67C91.8532 14.49 91.6732 14.275 91.5332 14.025C91.4032 13.765 91.3382 13.465 91.3382 13.125C91.3382 12.555 91.4832 12.11 91.7732 11.79C92.0732 11.46 92.4432 11.215 92.8832 11.055C93.3332 10.895 93.8082 10.795 94.3082 10.755C94.8182 10.715 95.2832 10.695 95.7032 10.695H96.1982ZM100.196 11.4C100.196 11.77 100.261 12.12 100.391 12.45C100.531 12.77 100.716 13.055 100.946 13.305C101.186 13.545 101.461 13.74 101.771 13.89C102.091 14.03 102.436 14.1 102.806 14.1C103.166 14.1 103.506 14.035 103.826 13.905C104.156 13.775 104.446 13.595 104.696 13.365C104.946 13.125 105.136 12.84 105.266 12.51C105.406 12.18 105.471 11.81 105.461 11.4C105.461 11.03 105.401 10.685 105.281 10.365C105.161 10.035 104.986 9.75 104.756 9.51C104.526 9.26 104.246 9.065 103.916 8.925C103.586 8.775 103.216 8.7 102.806 8.7C102.436 8.7 102.091 8.775 101.771 8.925C101.461 9.065 101.186 9.26 100.946 9.51C100.716 9.75 100.531 10.035 100.391 10.365C100.261 10.685 100.196 11.03 100.196 11.4ZM100.016 16.41C100.306 16.8 100.681 17.11 101.141 17.34C101.611 17.58 102.131 17.7 102.701 17.7C103.201 17.7 103.626 17.625 103.976 17.475C104.326 17.335 104.606 17.14 104.816 16.89C105.036 16.64 105.191 16.345 105.281 16.005C105.381 15.675 105.431 15.32 105.431 14.94V13.68H105.401C105.081 14.16 104.691 14.5 104.231 14.7C103.771 14.9 103.286 15 102.776 15C102.266 15 101.786 14.91 101.336 14.73C100.896 14.55 100.511 14.305 100.181 13.995C99.8515 13.675 99.5915 13.295 99.4015 12.855C99.2115 12.415 99.1165 11.94 99.1165 11.43C99.1165 10.92 99.2065 10.445 99.3865 10.005C99.5665 9.565 99.8115 9.18 100.121 8.85C100.441 8.52 100.816 8.265 101.246 8.085C101.686 7.895 102.166 7.8 102.686 7.8C102.896 7.8 103.116 7.82 103.346 7.86C103.586 7.9 103.821 7.97 104.051 8.07C104.291 8.17 104.526 8.31 104.756 8.49C104.986 8.66 105.201 8.88 105.401 9.15H105.431V7.98H106.421V14.94C106.421 15.32 106.371 15.725 106.271 16.155C106.181 16.585 105.996 16.98 105.716 17.34C105.446 17.7 105.066 18 104.576 18.24C104.086 18.48 103.446 18.6 102.656 18.6C101.956 18.6 101.331 18.485 100.781 18.255C100.231 18.025 99.7315 17.67 99.2815 17.19L100.016 16.41ZM114.106 10.95C114.106 10.28 113.906 9.74 113.506 9.33C113.106 8.91 112.546 8.7 111.826 8.7C111.506 8.7 111.196 8.765 110.896 8.895C110.596 9.015 110.331 9.18 110.101 9.39C109.881 9.6 109.701 9.84 109.561 10.11C109.431 10.38 109.366 10.66 109.366 10.95H114.106ZM109.336 11.76C109.366 12.11 109.451 12.44 109.591 12.75C109.731 13.06 109.916 13.33 110.146 13.56C110.376 13.78 110.641 13.955 110.941 14.085C111.241 14.215 111.566 14.28 111.916 14.28C112.446 14.28 112.901 14.16 113.281 13.92C113.671 13.67 113.966 13.385 114.166 13.065L114.931 13.695C114.511 14.225 114.046 14.605 113.536 14.835C113.036 15.065 112.496 15.18 111.916 15.18C111.396 15.18 110.911 15.09 110.461 14.91C110.021 14.72 109.641 14.46 109.321 14.13C109.001 13.8 108.746 13.41 108.556 12.96C108.376 12.51 108.286 12.02 108.286 11.49C108.286 10.96 108.376 10.47 108.556 10.02C108.736 9.57 108.986 9.18 109.306 8.85C109.626 8.52 110.001 8.265 110.431 8.085C110.861 7.895 111.326 7.8 111.826 7.8C112.356 7.8 112.831 7.895 113.251 8.085C113.671 8.275 114.021 8.53 114.301 8.85C114.591 9.16 114.811 9.53 114.961 9.96C115.111 10.38 115.186 10.83 115.186 11.31V11.76H109.336ZM116.981 9.54C116.981 9.28 116.971 9.02 116.951 8.76C116.941 8.5 116.926 8.24 116.906 7.98H117.971V9.045H118.001C118.241 8.635 118.571 8.325 118.991 8.115C119.421 7.905 119.846 7.8 120.266 7.8C120.456 7.8 120.656 7.82 120.866 7.86C121.086 7.9 121.296 7.975 121.496 8.085C121.696 8.185 121.881 8.33 122.051 8.52C122.231 8.71 122.381 8.955 122.501 9.255C122.701 8.805 123.016 8.45 123.446 8.19C123.886 7.93 124.341 7.8 124.811 7.8C125.711 7.8 126.376 8.04 126.806 8.52C127.236 8.99 127.451 9.665 127.451 10.545V15H126.461V10.905C126.461 10.195 126.336 9.65 126.086 9.27C125.836 8.89 125.371 8.7 124.691 8.7C124.321 8.7 124.011 8.775 123.761 8.925C123.511 9.065 123.306 9.255 123.146 9.495C122.996 9.735 122.886 10.01 122.816 10.32C122.746 10.62 122.711 10.935 122.711 11.265V15H121.721V10.905C121.721 10.195 121.596 9.65 121.346 9.27C121.096 8.89 120.631 8.7 119.951 8.7C119.891 8.7 119.751 8.72 119.531 8.76C119.321 8.8 119.101 8.91 118.871 9.09C118.641 9.27 118.431 9.54 118.241 9.9C118.061 10.26 117.971 10.76 117.971 11.4V15H116.981V9.54ZM135.215 10.95C135.215 10.28 135.015 9.74 134.615 9.33C134.215 8.91 133.655 8.7 132.935 8.7C132.615 8.7 132.305 8.765 132.005 8.895C131.705 9.015 131.44 9.18 131.21 9.39C130.99 9.6 130.81 9.84 130.67 10.11C130.54 10.38 130.475 10.66 130.475 10.95H135.215ZM130.445 11.76C130.475 12.11 130.56 12.44 130.7 12.75C130.84 13.06 131.025 13.33 131.255 13.56C131.485 13.78 131.75 13.955 132.05 14.085C132.35 14.215 132.675 14.28 133.025 14.28C133.555 14.28 134.01 14.16 134.39 13.92C134.78 13.67 135.075 13.385 135.275 13.065L136.04 13.695C135.62 14.225 135.155 14.605 134.645 14.835C134.145 15.065 133.605 15.18 133.025 15.18C132.505 15.18 132.02 15.09 131.57 14.91C131.13 14.72 130.75 14.46 130.43 14.13C130.11 13.8 129.855 13.41 129.665 12.96C129.485 12.51 129.395 12.02 129.395 11.49C129.395 10.96 129.485 10.47 129.665 10.02C129.845 9.57 130.095 9.18 130.415 8.85C130.735 8.52 131.11 8.265 131.54 8.085C131.97 7.895 132.435 7.8 132.935 7.8C133.465 7.8 133.94 7.895 134.36 8.085C134.78 8.275 135.13 8.53 135.41 8.85C135.7 9.16 135.92 9.53 136.07 9.96C136.22 10.38 136.295 10.83 136.295 11.31V11.76H130.445ZM139.035 7.98C139.055 8.17 139.065 8.36 139.065 8.55C139.075 8.73 139.08 8.915 139.08 9.105H139.11C139.22 8.915 139.36 8.74 139.53 8.58C139.7 8.42 139.89 8.285 140.1 8.175C140.31 8.055 140.53 7.965 140.76 7.905C141 7.835 141.235 7.8 141.465 7.8C142.365 7.8 143.03 8.04 143.46 8.52C143.89 8.99 144.105 9.665 144.105 10.545V15H143.115V11.115C143.115 10.335 142.98 9.74 142.71 9.33C142.44 8.91 141.94 8.7 141.21 8.7C141.16 8.7 141.02 8.72 140.79 8.76C140.56 8.8 140.315 8.91 140.055 9.09C139.805 9.27 139.58 9.54 139.38 9.9C139.18 10.26 139.08 10.76 139.08 11.4V15H138.09V9.525C138.09 9.335 138.08 9.095 138.06 8.805C138.05 8.515 138.035 8.24 138.015 7.98H139.035ZM150.055 8.88H148.03V13.02C148.03 13.28 148.055 13.495 148.105 13.665C148.155 13.825 148.225 13.95 148.315 14.04C148.405 14.13 148.51 14.195 148.63 14.235C148.76 14.265 148.9 14.28 149.05 14.28C149.22 14.28 149.395 14.255 149.575 14.205C149.755 14.155 149.92 14.09 150.07 14.01L150.115 14.925C149.745 15.095 149.3 15.18 148.78 15.18C148.59 15.18 148.39 15.155 148.18 15.105C147.98 15.055 147.795 14.96 147.625 14.82C147.455 14.68 147.315 14.49 147.205 14.25C147.095 14.01 147.04 13.695 147.04 13.305V8.88H145.555V7.98H147.04V6H148.03V7.98H150.055V8.88Z" fill="#43425D"/>
<path d="M13.3 6.2L14.4 4.1L13 2.7L10.9 3.8C10.5577 3.60726 10.1861 3.47212 9.8 3.4L9 1H7L6.2 3.3C5.85081 3.38964 5.51468 3.52409 5.2 3.7L3.1 2.6L1.6 4.1L2.7 6.2C2.52409 6.51468 2.38964 6.85081 2.3 7.2L0 8V10L2.3 10.8C2.4 11.2 2.6 11.5 2.7 11.9L1.6 14L3 15.4L5.1 14.3C5.44226 14.4927 5.81388 14.6279 6.2 14.7L7 17H9L9.8 14.7C10.2 14.6 10.5 14.4 10.9 14.3L13 15.4L14.4 14L13.3 11.9C13.4927 11.5577 13.6279 11.1861 13.7 10.8L16 10V8L13.7 7.2C13.6104 6.85081 13.4759 6.51468 13.3 6.2ZM8 12C7.60402 12.0073 7.21063 11.9347 6.84334 11.7866C6.47605 11.6384 6.14241 11.4177 5.86236 11.1376C5.58231 10.8576 5.3616 10.524 5.21343 10.1567C5.06526 9.78938 4.99267 9.39598 5 9C4.99267 8.60402 5.06526 8.21063 5.21343 7.84334C5.3616 7.47605 5.58231 7.14241 5.86236 6.86236C6.14241 6.58231 6.47605 6.3616 6.84334 6.21343C7.21063 6.06526 7.60402 5.99267 8 6C8.39598 5.99267 8.78938 6.06526 9.15666 6.21343C9.52395 6.3616 9.85759 6.58231 10.1376 6.86236C10.4177 7.14241 10.6384 7.47605 10.7866 7.84334C10.9347 8.21063 11.0073 8.60402 11 9C11.0073 9.39598 10.9347 9.78938 10.7866 10.1567C10.6384 10.524 10.4177 10.8576 10.1376 11.1376C9.85759 11.4177 9.52395 11.6384 9.15666 11.7866C8.78938 11.9347 8.39598 12.0073 8 12Z" fill="#C1C8D8"/>
</svg>
